<svg xmlns="http://www.w3.org/2000/svg" xmlns:xlink="http://www.w3.org/1999/xlink" width="600" viewBox="0 0 450 299.999988" height="400" preserveAspectRatio="xMidYMid meet"><defs><g></g><clipPath id="3a1428d0ae"><path d="M 138.195312 97.621094 L 311.804688 97.621094 L 311.804688 212.214844 L 138.195312 212.214844 Z M 138.195312 97.621094 " clip-rule="nonzero"></path></clipPath><clipPath id="2faf14b588"><path d="M 116.96875 97.621094 L 159.425781 97.621094 L 159.425781 212.214844 L 116.96875 212.214844 Z M 116.96875 97.621094 " clip-rule="nonzero"></path></clipPath><clipPath id="c6506963bb"><path d="M 290.574219 97.621094 L 333.03125 97.621094 L 333.03125 212.214844 L 290.574219 212.214844 Z M 290.574219 97.621094 " clip-rule="nonzero"></path></clipPath></defs><g clip-path="url(#3a1428d0ae)"><path fill="#000000" d="M 138.195312 97.621094 L 311.804688 97.621094 L 311.804688 212.214844 L 138.195312 212.214844 Z M 138.195312 97.621094 " fill-opacity="1" fill-rule="nonzero"></path></g><g clip-path="url(#2faf14b588)"><path fill="#d9d9d9" d="M 116.96875 97.621094 L 159.425781 97.621094 L 159.425781 212.214844 L 116.96875 212.214844 Z M 116.96875 97.621094 " fill-opacity="1" fill-rule="nonzero"></path></g><g clip-path="url(#c6506963bb)"><path fill="#d9d9d9" d="M 290.574219 97.621094 L 333.03125 97.621094 L 333.03125 212.214844 L 290.574219 212.214844 Z M 290.574219 97.621094 " fill-opacity="1" fill-rule="nonzero"></path></g><g fill="#ffffff" fill-opacity="1"><g transform="translate(168.98453, 176.760953)"><g><path d="M 2.03125 0 L 2.03125 -6.078125 L 12.15625 -6.078125 L 12.15625 -44.578125 L 4.046875 -36.46875 L 0 -40.53125 L 14.1875 -54.71875 L 18.234375 -54.71875 L 18.234375 -6.078125 L 28.375 -6.078125 L 28.375 0 Z M 2.03125 0 "></path></g></g></g><g fill="#ffffff" fill-opacity="1"><g transform="translate(209.510539, 176.760953)"><g><path d="M 0 0 L 0 -12.15625 L 24.3125 -36.46875 L 24.3125 -42.546875 L 18.234375 -48.640625 L 12.15625 -48.640625 L 4.046875 -40.53125 L 0 -44.578125 L 10.125 -54.71875 L 20.265625 -54.71875 L 30.390625 -44.578125 L 30.390625 -34.453125 L 6.078125 -10.125 L 6.078125 -6.078125 L 30.390625 -6.078125 L 30.390625 0 Z M 0 0 "></path></g></g></g><g fill="#ffffff" fill-opacity="1"><g transform="translate(250.036547, 176.760953)"><g><path d="M 10.125 0 L 0 -10.125 L 4.046875 -14.1875 L 12.15625 -6.078125 L 18.234375 -6.078125 L 24.3125 -12.15625 L 24.3125 -18.234375 L 18.234375 -24.3125 L 10.125 -24.3125 L 10.125 -30.390625 L 18.234375 -30.390625 L 24.3125 -36.46875 L 24.3125 -42.546875 L 18.234375 -48.640625 L 12.15625 -48.640625 L 4.046875 -40.53125 L 0 -44.578125 L 10.125 -54.71875 L 20.265625 -54.71875 L 30.390625 -44.578125 L 30.390625 -34.453125 L 24.3125 -28.375 L 24.1875 -28.375 L 23.296875 -27.359375 L 30.390625 -20.265625 L 30.390625 -10.125 L 20.265625 0 Z M 10.125 0 "></path></g></g></g></svg>